<?xml version="1.0" standalone="no"?>
<!DOCTYPE svg PUBLIC "-//W3C//DTD SVG 20010904//EN"
 "http://www.w3.org/TR/2001/REC-SVG-20010904/DTD/svg10.dtd">
<svg version="1.0" xmlns="http://www.w3.org/2000/svg"
 width="1024.000000pt" height="1024.000000pt" viewBox="0 0 1024.000000 1024.000000"
 preserveAspectRatio="xMidYMid meet">
<metadata>
Created by potrace 1.11, written by Peter Selinger 2001-2013
</metadata>
<g transform="translate(0.000000,1024.000000) scale(0.100000,-0.100000)"
fill="#000000" stroke="none">
<path d="M7895 9020 c-4 -6 -14 -9 -23 -6 -10 3 -28 -4 -42 -15 -14 -11 -18
-18 -10 -14 8 4 2 -4 -13 -16 -61 -52 -116 -107 -111 -112 3 -3 -4 -8 -15 -12
-12 -3 -21 -11 -21 -16 0 -17 -24 -36 -39 -31 -8 3 -11 0 -7 -7 4 -6 0 -11
-11 -11 -15 0 -16 -2 -3 -10 13 -9 7 -14 -13 -11 -4 0 -6 -2 -6 -6 3 -21 -2
-33 -13 -27 -7 5 -8 3 -3 -6 5 -8 -7 -26 -36 -53 -24 -22 -39 -37 -32 -33 6 3
14 2 18 -4 3 -5 1 -10 -5 -10 -6 0 -8 -4 -5 -10 6 -10 -9 -15 -30 -10 -5 1 -7
-1 -3 -5 7 -8 -27 -45 -42 -45 -5 0 -10 -7 -10 -16 0 -8 -4 -13 -8 -10 -4 2
-14 -5 -22 -17 -12 -20 -12 -21 4 -8 14 12 16 12 10 -3 -3 -9 -12 -16 -19 -16
-7 0 -19 -8 -26 -17 -12 -15 -12 -16 1 -8 8 4 5 -2 -7 -14 -13 -12 -23 -26
-23 -31 0 -6 -3 -9 -7 -8 -5 1 -20 -4 -35 -10 -19 -8 -36 -8 -54 -2 -14 6 -31
7 -37 3 -21 -13 -41 -9 -60 12 -18 20 -18 20 -6 -5 10 -21 10 -23 -2 -15 -8 6
-36 9 -64 8 -77 -5 -79 -5 -100 0 -11 2 -26 -3 -34 -10 -11 -12 -15 -12 -22
-1 -7 10 -9 10 -9 -2 0 -13 -1 -13 -10 0 -5 8 -10 11 -10 6 0 -5 -6 -4 -13 2
-10 9 -19 7 -35 -4 -15 -10 -22 -11 -22 -3 0 6 -8 9 -20 6 -11 -3 -20 0 -20 5
0 7 -4 7 -13 0 -6 -6 -27 -9 -45 -8 -18 1 -36 -2 -39 -7 -3 -5 -9 -3 -14 4 -8
12 -11 11 -19 -1 -6 -10 -10 -11 -10 -2 0 15 -42 16 -57 1 -7 -7 -17 -8 -29
-1 -20 10 -36 9 -66 -3 -10 -4 -18 -3 -18 2 0 5 -9 9 -19 9 -15 0 -17 -3 -9
-13 6 -8 8 -16 4 -20 -3 -3 -6 -1 -6 5 0 6 -12 9 -30 7 -28 -3 -29 -2 -19 18
12 22 12 22 -10 3 -11 -11 -21 -14 -21 -9 0 9 -17 9 -85 0 -11 -2 -26 2 -34 7
-10 8 -15 8 -18 -1 -3 -7 -11 -13 -19 -13 -8 0 -14 -5 -14 -12 0 -6 -7 -3 -16
8 -10 13 -14 14 -11 4 3 -10 -2 -16 -14 -16 -14 0 -16 3 -6 16 9 11 6 11 -8
-2 -28 -24 -68 -29 -100 -12 -32 17 -38 17 -30 4 3 -6 -1 -7 -9 -4 -9 3 -16
10 -16 16 0 5 -4 7 -9 4 -5 -4 -8 2 -6 11 1 10 -15 36 -39 59 -51 51 -66 70
-66 84 0 6 -4 8 -10 5 -5 -3 -10 3 -10 14 0 12 -4 21 -10 21 -5 0 -10 7 -10
15 0 8 -4 15 -10 15 -5 0 -10 7 -10 15 0 8 -6 15 -13 15 -7 0 -28 18 -46 41
-22 26 -39 38 -49 34 -12 -5 -13 -3 -2 10 11 13 11 16 -1 13 -8 -2 -13 3 -11
10 1 8 -2 11 -8 7 -5 -3 -10 -1 -10 5 0 6 -6 8 -12 4 -7 -4 -10 -3 -5 1 4 5
-3 20 -15 33 -13 14 -16 22 -8 18 9 -5 8 -2 -2 7 -10 8 -18 22 -18 31 0 9 -5
16 -10 16 -6 0 -15 12 -20 26 -6 14 -14 22 -20 19 -5 -3 -10 1 -10 9 0 24 -22
66 -31 60 -5 -3 -9 -1 -9 5 0 13 -33 7 -38 -7 -2 -7 -10 -12 -18 -12 -8 0 -17
-7 -21 -16 -3 -8 -12 -13 -19 -10 -8 3 -14 -1 -14 -10 0 -8 -4 -12 -10 -9 -5
3 -10 1 -10 -4 0 -6 -14 -23 -31 -38 -17 -16 -38 -45 -46 -65 -8 -21 -22 -38
-31 -38 -8 0 -13 -3 -9 -6 3 -3 -5 -16 -18 -28 -19 -17 -22 -25 -13 -34 8 -8
9 -12 1 -12 -6 0 -25 -22 -43 -50 -18 -27 -37 -50 -43 -50 -6 0 -7 -3 -4 -7 4
-3 0 -11 -8 -17 -8 -6 -16 -22 -18 -36 -5 -34 -18 -61 -26 -56 -3 2 -12 -2
-19 -10 -10 -11 -10 -14 0 -14 10 0 10 -2 0 -9 -8 -4 -13 -11 -13 -15 3 -20 0
-26 -11 -20 -7 5 -9 2 -5 -9 3 -8 -1 -21 -9 -28 -11 -9 -12 -15 -3 -26 10 -11
9 -12 -5 -7 -10 4 -16 1 -17 -7 -3 -37 -20 -79 -31 -79 -6 0 -8 -7 -4 -15 3
-8 1 -15 -4 -15 -6 0 -9 -6 -8 -12 2 -7 -4 -12 -12 -10 -10 1 -9 -3 5 -14 20
-16 20 -16 -2 -11 -19 4 -21 2 -13 -13 7 -14 4 -22 -13 -34 -12 -9 -16 -14
-10 -11 8 4 11 1 7 -8 -3 -8 -15 -17 -26 -21 -17 -4 -19 -8 -10 -19 9 -10 9
-16 0 -25 -9 -9 -9 -12 1 -12 7 0 10 -4 6 -10 -3 -5 -13 -6 -23 -3 -11 4 -8
-2 8 -16 14 -12 19 -20 13 -16 -7 3 -13 2 -13 -4 0 -6 -6 -8 -13 -5 -8 3 -13
-5 -15 -23 -1 -14 -8 -34 -16 -42 -7 -9 -11 -22 -8 -30 3 -8 0 -11 -6 -7 -7 4
-10 -2 -9 -16 3 -31 -25 -89 -40 -84 -9 4 -10 -1 -3 -19 6 -16 5 -25 -3 -28
-9 -3 -9 -8 2 -20 11 -14 11 -18 -3 -23 -9 -3 -16 -10 -16 -16 0 -5 6 -6 13
-3 6 4 4 0 -5 -8 -13 -10 -15 -16 -6 -25 9 -9 9 -12 -2 -12 -7 0 -11 -2 -8 -6
3 -3 -2 -22 -12 -42 -10 -21 -14 -39 -9 -40 5 -2 0 -13 -12 -23 -15 -13 -17
-19 -8 -19 11 0 11 -2 -1 -10 -12 -8 -12 -10 -1 -10 11 0 11 -3 1 -15 -7 -8
-9 -15 -5 -15 4 0 1 -8 -6 -17 -10 -11 -10 -14 -1 -9 6 4 12 3 12 -2 0 -6 -7
-13 -16 -16 -9 -4 -14 -13 -10 -21 3 -8 1 -15 -3 -15 -5 0 -7 -9 -4 -21 4 -12
0 -25 -8 -30 -9 -5 -14 -29 -14 -69 -1 -42 -7 -67 -19 -81 -17 -20 -17 -21 5
-14 17 6 20 4 13 -6 -5 -8 -9 -21 -9 -30 0 -9 -8 -26 -19 -38 -10 -11 -16 -27
-13 -36 4 -8 2 -15 -2 -15 -5 0 -8 -22 -7 -50 2 -33 -2 -51 -10 -54 -8 -3 -12
-17 -9 -36 2 -16 -1 -30 -6 -30 -6 0 -7 -9 -4 -21 5 -15 4 -19 -4 -15 -6 4
-11 2 -11 -3 0 -6 4 -11 8 -11 10 0 8 -67 -3 -77 -4 -5 -4 -1 0 7 8 13 6 13
-8 1 -19 -15 -14 -33 8 -25 14 6 14 -7 1 -38 -4 -9 -9 -25 -11 -35 -2 -10 -4
-18 -6 -18 -1 0 -3 -10 -4 -22 -1 -13 2 -23 7 -23 5 0 3 -10 -4 -22 -15 -29
-19 -198 -4 -218 6 -8 6 -12 2 -8 -5 4 -16 -7 -26 -25 -12 -24 -13 -34 -5 -42
18 -15 16 -28 -6 -51 -15 -16 -16 -23 -7 -32 9 -9 9 -12 -1 -12 -7 0 -10 -4
-7 -9 3 -4 -6 -21 -19 -37 -14 -16 -25 -25 -25 -20 0 5 -9 -3 -20 -17 -11 -14
-20 -28 -20 -32 0 -15 -54 -75 -67 -75 -9 0 -13 -6 -10 -14 3 -8 -3 -23 -14
-34 -10 -12 -19 -29 -19 -38 0 -10 -11 -37 -25 -61 -14 -23 -23 -43 -19 -43 3
0 2 -6 -3 -12 -6 -7 -9 -23 -8 -35 1 -12 -5 -25 -12 -28 -8 -2 -12 -9 -9 -14
3 -5 -1 -14 -9 -21 -13 -11 -13 -14 2 -27 10 -8 11 -11 3 -7 -13 7 -13 5 -2
-8 10 -13 10 -17 -2 -21 -15 -6 -15 -35 0 -58 3 -6 1 -15 -5 -19 -8 -4 -12
-32 -12 -71 1 -77 7 -213 11 -216 1 -2 3 -6 4 -10 1 -5 5 -14 10 -22 6 -9 5
-12 -1 -8 -6 4 -14 0 -17 -9 -4 -11 -2 -15 8 -11 11 4 13 -1 10 -20 -3 -15 0
-29 6 -33 6 -4 12 -29 13 -56 1 -31 9 -56 20 -68 9 -11 18 -23 18 -28 4 -27 4
-34 -4 -39 -5 -3 -3 -12 5 -20 18 -19 45 -77 53 -114 4 -16 16 -41 28 -54 12
-13 16 -21 9 -17 -7 5 -12 1 -12 -10 0 -14 -8 -16 -50 -12 -33 3 -50 1 -50 -6
0 -6 -7 -2 -15 8 -8 11 -15 15 -15 9 0 -6 -18 -10 -41 -9 -22 1 -43 -2 -46 -6
-2 -5 -11 -4 -19 3 -8 6 -14 7 -14 2 0 -13 -43 -11 -52 2 -5 6 -8 5 -8 -2 0
-9 -7 -10 -22 -5 -22 7 -70 7 -148 -1 -23 -2 -39 2 -47 12 -7 9 -13 11 -13 5
0 -13 -188 -14 -207 -1 -8 5 -13 3 -13 -4 0 -9 -3 -9 -14 0 -8 7 -17 8 -20 3
-3 -5 -22 -10 -43 -11 -114 -7 -388 1 -401 12 -10 8 -16 7 -23 -4 -7 -11 -9
-11 -9 0 0 11 -3 11 -17 0 -15 -12 -16 -12 -8 1 8 13 7 13 -8 1 -12 -9 -17
-10 -17 -2 0 8 -4 8 -14 -1 -8 -7 -11 -17 -8 -23 3 -5 -2 -4 -11 4 -9 7 -17
10 -17 6 0 -4 -7 -2 -15 5 -8 7 -15 8 -15 3 0 -7 -15 -7 -40 -3 -22 4 -43 3
-46 -1 -3 -5 -14 -4 -25 1 -10 6 -19 7 -19 3 0 -4 -5 -1 -10 7 -7 11 -12 12
-17 4 -10 -15 -54 -21 -72 -10 -10 7 -12 6 -6 -4 6 -9 4 -11 -6 -5 -15 10 -79
14 -79 5 0 -8 -56 -4 -71 5 -8 6 -10 4 -4 -6 7 -11 6 -12 -6 -3 -21 16 -98 12
-110 -6 -9 -13 -10 -12 -5 3 3 9 1 17 -4 17 -6 0 -10 -6 -10 -12 0 -8 -7 -5
-15 6 -9 12 -15 15 -15 7 0 -8 -6 -11 -15 -7 -8 3 -15 1 -15 -4 0 -6 -9 -6
-24 0 -17 6 -26 5 -30 -3 -2 -7 -5 -4 -5 6 -1 19 -16 23 -26 7 -4 -7 -14 -6
-28 2 -21 10 -21 10 -7 -7 14 -17 14 -18 -7 -6 -18 9 -23 9 -23 -1 -1 -8 -6
-6 -15 6 -11 14 -18 16 -28 8 -16 -14 -129 -11 -139 3 -5 6 -8 5 -8 -4 0 -7
-6 -11 -15 -7 -8 3 -15 2 -15 -2 0 -4 -9 -8 -19 -8 -11 0 -18 4 -15 7 2 4 0
10 -5 13 -5 4 -12 2 -16 -4 -3 -5 -26 -8 -51 -6 -24 2 -47 -1 -50 -5 -3 -5
-11 -6 -17 -2 -19 12 -40 13 -54 1 -7 -6 -13 -7 -13 -2 0 9 -91 10 -114 1 -8
-3 -22 1 -33 8 -23 18 -37 19 -27 3 5 -9 2 -9 -9 1 -11 9 -17 10 -17 2 0 -6
-5 -11 -10 -11 -19 0 -91 -51 -89 -63 4 -29 -2 -48 -12 -41 -8 5 -8 1 0 -13 6
-11 8 -23 5 -26 -3 -3 0 -16 7 -29 7 -12 14 -41 15 -63 2 -22 8 -41 14 -43 5
-2 10 -12 10 -23 0 -10 4 -19 9 -19 14 0 21 -44 8 -52 -9 -6 -9 -8 1 -8 7 0
11 -4 8 -9 -3 -5 1 -12 10 -15 13 -5 14 -9 4 -21 -8 -9 -9 -15 -2 -15 6 0 9
-11 6 -25 -2 -14 0 -25 6 -25 6 0 8 -4 5 -10 -3 -5 -2 -10 4 -10 5 0 8 -9 6
-19 -4 -23 16 -71 30 -71 6 0 3 -5 -5 -10 -12 -8 -12 -10 5 -10 12 0 16 -3 9
-8 -7 -4 -13 -16 -14 -27 -4 -30 11 -85 22 -85 6 0 7 -7 4 -16 -4 -9 2 -22 15
-33 14 -11 22 -30 23 -56 0 -22 5 -46 9 -53 5 -7 12 -26 17 -42 7 -25 6 -30
-8 -30 -13 0 -14 -2 -4 -9 8 -4 13 -11 13 -15 -3 -19 0 -27 8 -22 5 3 12 -1
15 -10 4 -10 2 -13 -7 -8 -6 4 -4 -1 5 -12 12 -14 14 -24 7 -31 -11 -11 6 -67
19 -59 4 3 8 -5 9 -17 1 -60 3 -68 16 -61 9 5 9 4 0 -6 -11 -12 -3 -40 17 -60
6 -6 11 -33 13 -70 1 -14 7 -28 12 -32 6 -5 4 -8 -5 -8 -12 -1 -11 -3 3 -11
12 -7 15 -17 11 -35 -4 -14 -2 -24 5 -24 6 0 10 -3 9 -7 0 -5 3 -17 7 -27 6
-13 5 -21 -3 -24 -8 -2 -7 -8 3 -19 9 -8 13 -25 11 -39 -3 -13 0 -24 5 -24 6
0 7 -4 4 -10 -3 -5 -1 -10 6 -10 6 0 9 -8 6 -20 -3 -11 -1 -20 5 -20 6 0 8 -6
5 -14 -3 -8 -3 -17 0 -20 3 -3 7 -22 9 -42 2 -21 9 -41 15 -45 6 -4 11 -18 11
-33 0 -16 6 -26 15 -26 8 0 11 -4 8 -10 -3 -5 -1 -10 5 -10 7 0 5 -7 -4 -16
-19 -18 -20 -25 -4 -22 6 2 14 -5 16 -16 2 -11 0 -16 -6 -12 -10 6 7 -54 18
-64 3 -3 6 -13 7 -22 2 -42 3 -48 12 -46 5 2 9 -1 9 -6 0 -5 6 -13 14 -17 10
-7 9 -9 -4 -9 -11 0 -15 -6 -11 -20 3 -11 9 -20 14 -20 5 0 9 -9 9 -21 0 -11
5 -17 10 -14 6 4 8 -7 5 -29 -2 -20 0 -36 4 -36 5 0 7 -12 5 -27 -1 -15 2 -33
8 -40 6 -7 8 -19 5 -27 -4 -11 -1 -13 10 -9 10 4 14 2 10 -4 -4 -6 -4 -13 0
-16 5 -2 2 -2 -4 -1 -7 2 -13 -4 -13 -12 0 -9 5 -12 13 -8 7 5 6 0 -3 -11 -9
-11 -10 -16 -2 -11 7 4 12 2 12 -8 0 -8 5 -16 10 -18 6 -2 12 -13 13 -26 0
-12 4 -22 7 -22 3 0 7 -19 9 -42 1 -23 7 -48 13 -55 7 -9 7 -13 -1 -13 -7 0
-10 -4 -7 -9 3 -5 -10 -8 -29 -6 -23 2 -33 0 -29 -7 5 -7 0 -9 -14 -6 -13 4
-20 2 -19 -6 1 -6 -4 -10 -12 -8 -8 2 -18 -3 -22 -10 -7 -10 -9 -10 -9 0 0 10
-7 9 -29 -2 -16 -9 -31 -12 -34 -9 -4 3 -13 0 -22 -7 -8 -7 -15 -9 -15 -5 0 4
-7 1 -17 -6 -9 -8 -19 -13 -22 -13 -3 1 -5 -2 -4 -7 2 -4 -4 -6 -13 -2 -13 5
-13 7 -2 14 10 7 10 9 -2 9 -8 0 -21 -10 -29 -21 -9 -15 -15 -18 -20 -10 -6 9
-11 8 -20 -3 -7 -8 -20 -12 -28 -9 -11 4 -14 2 -9 -5 4 -8 2 -10 -7 -6 -9 3
-16 -2 -19 -13 -6 -21 -45 -28 -65 -11 -9 7 -13 7 -13 -1 0 -7 -5 -9 -12 -4
-16 9 -49 5 -65 -9 -7 -6 -13 -7 -13 -2 0 5 -5 2 -10 -8 -6 -9 -18 -14 -28
-11 -11 2 -26 -3 -36 -12 -9 -9 -16 -11 -16 -5 0 6 -5 8 -10 5 -6 -4 -8 -10
-5 -15 3 -4 -3 -6 -13 -3 -11 2 -26 -2 -34 -11 -12 -11 -18 -12 -27 -3 -9 9
-11 8 -5 -6 3 -10 3 -17 -2 -16 -21 4 -35 -2 -29 -11 3 -5 0 -7 -9 -4 -8 3
-14 11 -12 17 1 7 1 9 -1 4 -3 -4 -10 -4 -15 -1 -6 4 -8 3 -5 -3 7 -11 -28
-30 -53 -28 -8 0 -18 -4 -22 -10 -5 -6 -8 -5 -8 4 0 10 -3 11 -13 2 -8 -6 -27
-13 -43 -15 -63 -8 -93 -19 -87 -29 4 -6 0 -8 -10 -4 -10 4 -16 2 -14 -6 1 -7
-6 -11 -15 -9 -10 2 -18 -2 -18 -8 0 -5 -5 -10 -11 -10 -5 0 -7 4 -4 10 7 11
-23 2 -42 -12 -7 -6 -17 -7 -23 -3 -5 3 -10 -2 -10 -12 -1 -15 -4 -13 -16 7
-8 14 -13 17 -10 8 3 -10 1 -20 -4 -23 -6 -4 -10 -2 -10 4 0 13 -20 8 -52 -13
-16 -10 -34 -16 -42 -13 -7 3 -19 0 -25 -6 -6 -6 -19 -12 -28 -13 -10 -2 -38
-6 -63 -9 -24 -3 -48 -11 -51 -17 -4 -6 -13 -7 -20 -3 -8 5 -11 5 -7 0 4 -4 3
-14 -3 -22 -10 -11 -15 -11 -27 -1 -13 11 -14 11 -7 -1 6 -11 4 -13 -8 -8 -8
3 -21 -1 -27 -8 -9 -11 -17 -12 -32 -4 -12 7 -18 7 -14 1 7 -12 -40 -25 -56
-16 -7 5 -8 2 -3 -6 6 -10 4 -12 -8 -7 -10 3 -17 2 -17 -3 0 -6 -6 -9 -12 -8
-7 2 -12 -3 -11 -9 2 -7 -9 -16 -23 -19 -13 -4 -23 -9 -20 -11 7 -7 -20 -33
-34 -33 -6 0 -9 -4 -5 -9 3 -5 -4 -12 -15 -16 -11 -3 -20 -11 -20 -16 0 -6 5
-7 12 -3 7 4 8 3 4 -5 -4 -6 -12 -9 -17 -6 -5 4 -9 -1 -9 -9 0 -8 -4 -18 -10
-21 -6 -3 -7 1 -4 12 5 17 5 17 -6 0 -6 -10 -13 -32 -16 -49 -2 -17 -9 -35
-15 -39 -7 -4 -12 -25 -11 -48 1 -22 -3 -43 -9 -46 -6 -4 -6 -11 -1 -18 15
-20 22 -58 9 -50 -8 4 -8 2 0 -9 7 -8 9 -18 5 -22 -4 -4 -8 -12 -8 -17 -1 -5
-2 -10 -3 -11 -8 -11 -8 -58 0 -58 6 0 7 -5 4 -10 -3 -6 -1 -10 4 -10 15 0 9
-22 -8 -36 -10 -8 -11 -13 -3 -18 7 -4 12 -12 12 -17 0 -6 -4 -8 -8 -5 -20 12
20 -101 42 -120 14 -12 23 -24 20 -27 -3 -2 13 -23 36 -47 22 -23 37 -47 34
-52 -4 -7 -2 -8 5 -4 6 4 8 12 5 18 -4 7 -2 8 4 4 6 -4 8 -14 5 -23 -4 -11 -3
-14 5 -9 7 4 15 1 18 -8 5 -14 8 -14 21 0 12 11 18 12 29 3 8 -7 17 -9 21 -6
3 4 12 2 19 -4 8 -6 20 -9 29 -6 8 4 17 2 21 -4 4 -6 15 -4 30 6 22 14 24 14
24 -2 1 -17 1 -17 11 0 11 19 49 24 49 5 0 -6 3 -8 7 -5 3 4 17 0 29 -8 20
-13 22 -13 18 -1 -7 18 17 16 40 -3 12 -10 19 -10 36 2 15 11 30 13 50 7 16
-5 30 -6 32 -4 13 12 81 14 96 2 15 -12 16 -11 3 5 -12 15 -11 17 8 17 11 0
21 -4 21 -8 0 -5 10 -8 22 -6 13 1 23 3 23 4 0 1 13 4 28 6 22 4 27 2 21 -8
-6 -10 -4 -10 9 1 14 11 17 11 17 0 0 -11 2 -11 10 1 5 8 10 10 10 4 0 -6 22
-10 58 -9 31 1 60 -3 64 -9 5 -7 8 -7 8 2 0 7 5 10 10 7 6 -3 10 0 10 7 0 8 3
9 8 3 7 -10 22 -13 102 -18 19 -1 40 -6 47 -10 6 -4 14 -3 18 3 4 6 11 8 16 5
5 -4 9 -2 9 4 0 10 19 9 38 -2 6 -5 12 -4 12 1 0 6 8 8 19 5 10 -2 25 3 35 12
12 12 16 13 16 3 0 -10 3 -9 10 2 8 12 10 12 15 -2 4 -10 16 -15 36 -13 21 2
29 -2 30 -14 0 -13 2 -13 8 2 8 22 21 24 32 5 6 -9 9 -10 9 -1 0 9 7 10 25 3
14 -5 44 -7 68 -4 50 6 49 6 110 2 26 -2 47 1 47 7 0 6 5 3 10 -5 7 -11 10
-11 10 -2 0 7 4 11 9 7 5 -3 13 0 17 6 5 8 8 8 14 -1 8 -13 60 -21 60 -9 0 4
9 7 20 6 11 -1 20 -5 20 -9 0 -4 7 -5 15 -2 8 4 15 1 15 -6 0 -10 3 -10 14 -1
10 9 16 9 21 1 5 -8 11 -8 21 1 7 6 20 9 28 6 7 -3 24 1 36 10 16 11 25 12 33
4 13 -13 87 -15 87 -2 0 5 11 8 25 7 14 0 25 -4 25 -7 0 -8 45 -3 59 6 6 3 11
2 11 -3 0 -4 18 -7 41 -5 30 2 38 0 33 -9 -5 -10 -4 -10 5 -2 8 7 31 10 56 7
24 -2 46 0 49 5 3 6 20 7 40 2 22 -5 39 -3 47 4 8 7 10 7 6 0 -8 -14 56 -15
65 0 5 8 8 7 8 -1 0 -7 5 -13 11 -13 5 0 8 4 5 8 -3 5 2 9 10 9 8 0 13 -6 10
-13 -3 -8 0 -16 6 -20 6 -4 8 -3 5 3 -4 6 0 16 7 22 9 7 17 8 20 2 7 -10 31
-9 42 2 11 11 72 8 79 -3 4 -6 11 -8 16 -5 5 4 9 2 9 -4 0 -12 32 -2 43 13 5
8 9 8 15 1 8 -12 129 -13 154 -1 10 4 15 13 12 18 -4 6 3 5 15 -1 11 -7 21
-14 21 -17 0 -3 -5 -2 -12 2 -7 4 -8 3 -4 -5 4 -6 12 -8 18 -5 6 4 14 1 18 -5
5 -9 11 -8 24 4 10 10 16 12 16 5 0 -7 7 -10 15 -7 8 4 16 3 19 -1 3 -5 61 -8
130 -7 105 1 128 3 144 18 15 14 22 15 28 6 4 -8 3 -10 -4 -5 -7 4 -12 2 -12
-5 0 -6 8 -9 20 -6 11 3 20 1 20 -3 0 -10 27 -7 37 5 4 4 2 5 -6 0 -9 -5 -12
-4 -7 3 4 7 14 6 33 -3 21 -11 29 -12 35 -2 6 9 8 9 8 -2 0 -11 3 -11 15 -1
12 10 15 10 15 -1 1 -10 4 -8 11 4 13 23 28 22 50 -5 11 -11 19 -16 19 -9 0 7
4 10 9 6 6 -3 14 3 20 12 6 10 11 13 11 7 0 -6 19 -10 46 -10 25 1 48 -3 51
-7 3 -4 16 -1 29 8 13 8 24 12 24 8 0 -5 4 -3 8 4 5 8 17 7 47 -4 45 -16 155
-23 155 -9 0 4 9 6 20 3 11 -3 18 -1 14 4 -3 5 0 9 5 9 6 0 11 -5 11 -11 0 -8
4 -8 14 0 9 7 22 8 37 3 15 -6 31 -5 43 2 12 7 20 8 22 1 2 -6 21 -9 42 -7 45
3 50 3 82 -1 14 -2 31 1 38 6 9 7 17 4 27 -9 8 -10 15 -14 15 -9 0 15 40 13
40 -1 0 -16 21 -12 53 9 15 10 27 13 27 7 0 -6 5 -8 10 -5 6 4 18 1 27 -7 11
-8 14 -9 10 -1 -6 9 4 11 40 8 26 -2 58 -6 70 -9 12 -2 27 2 33 9 13 16 43 9
33 -8 -3 -6 -1 -7 6 -3 6 4 19 2 28 -6 15 -12 15 -11 3 12 l-13 25 23 -20 c13
-11 20 -15 17 -8 -5 8 5 11 38 8 29 -2 45 1 45 9 0 6 4 5 9 -3 12 -19 120 -18
132 1 5 7 9 9 9 3 0 -5 4 -5 8 2 6 10 13 10 32 0 40 -21 62 -28 55 -18 -3 5
-1 12 5 16 5 3 10 1 10 -6 0 -8 4 -8 15 1 12 10 15 10 15 -1 0 -12 2 -12 9 0
7 11 9 11 14 0 4 -10 6 -10 6 -1 1 6 8 12 17 12 8 0 12 -5 8 -11 -4 -7 1 -7
16 1 18 10 24 9 31 -1 7 -11 9 -11 9 -1 0 10 4 10 16 -2 18 -19 25 -20 22 -5
-2 6 3 14 11 17 9 3 12 0 9 -10 -4 -8 0 -15 8 -15 7 0 11 4 8 9 -3 5 13 7 37
4 26 -3 49 -1 58 7 12 10 14 9 9 -3 -4 -11 2 -15 23 -16 16 -1 26 2 24 7 -3 4
-1 10 5 14 5 3 10 1 10 -5 0 -10 9 -7 41 12 3 1 12 -2 20 -8 16 -13 47 -12 68
1 10 5 12 4 7 -3 -4 -7 -3 -12 3 -12 5 0 11 6 13 12 3 9 9 8 22 -4 16 -17 19
-16 53 2 35 19 59 18 48 -1 -8 -12 38 -7 47 6 5 7 8 6 8 -1 0 -5 18 -11 41
-13 22 -1 38 2 35 7 -3 5 1 9 10 9 10 0 12 -7 8 -21 -4 -15 -3 -17 4 -7 5 7
16 11 23 9 8 -3 20 2 27 11 10 12 12 13 6 1 -7 -13 -5 -13 9 -1 10 8 17 9 17
3 0 -7 10 -8 30 -2 21 6 30 5 30 -3 0 -8 3 -8 8 -2 11 15 55 18 46 2 -6 -9 -4
-9 8 1 13 10 17 10 21 0 4 -10 6 -10 6 0 1 6 8 12 17 12 9 0 12 -5 8 -12 -6
-10 -4 -10 7 0 15 14 33 17 25 4 -7 -12 56 -11 72 1 8 6 12 6 12 -1 0 -13 39
-22 46 -11 3 6 12 5 22 -3 13 -11 14 -11 7 1 -6 11 -4 13 7 8 9 -3 21 0 27 6
6 6 11 7 11 1 0 -5 8 -10 18 -11 9 -1 31 -4 48 -6 16 -3 36 -2 44 3 8 5 22 4
33 -2 12 -6 17 -6 13 0 -3 5 1 13 10 16 21 8 26 8 20 -3 -3 -4 6 -7 19 -5 14
1 25 -2 25 -7 0 -5 10 -5 23 0 12 5 39 7 60 5 20 -2 37 0 37 4 0 4 18 8 40 9
23 0 48 7 57 15 13 10 15 10 9 0 -10 -16 39 -9 62 10 9 7 13 8 9 2 -4 -7 2
-10 18 -6 15 2 22 9 18 16 -3 6 0 6 8 -2 16 -15 39 -16 39 -1 0 5 -5 7 -12 3
-6 -4 -8 -3 -5 4 4 5 17 8 29 4 16 -4 19 -2 13 8 -5 9 -4 11 4 6 6 -4 8 -12 5
-18 -5 -8 -1 -9 10 -5 10 4 20 7 22 7 2 0 4 10 5 23 0 16 2 18 7 7 4 -8 15
-16 25 -16 10 -1 16 0 13 4 -11 11 61 40 114 46 9 1 21 5 28 10 6 4 12 4 12 0
0 -4 10 2 23 13 12 12 32 19 44 17 12 -2 23 3 27 11 3 8 10 15 15 15 6 0 8 -8
4 -17 -6 -16 -3 -15 17 2 13 11 20 14 16 8 -10 -18 -2 -16 41 7 23 12 41 16
46 11 6 -6 16 -4 25 5 8 8 21 13 28 10 7 -3 17 2 22 10 5 8 19 16 33 17 13 1
34 8 45 14 12 7 24 9 28 6 3 -3 6 -1 6 7 0 10 3 10 15 0 8 -7 15 -8 15 -3 0 5
12 10 27 11 15 1 30 7 34 14 4 7 9 4 12 -8 4 -16 5 -17 6 -1 0 9 6 17 12 17 5
0 8 4 5 9 -8 12 27 8 36 -4 5 -6 8 -5 8 3 0 7 4 10 10 7 5 -3 15 3 22 14 11
18 13 18 25 3 12 -16 13 -16 7 1 -5 13 -2 16 10 11 9 -3 16 -2 16 3 0 8 36 14
90 16 8 0 25 11 38 24 20 22 27 22 23 0 -1 -5 3 -6 9 -2 6 3 7 11 4 17 -5 8
-1 9 12 4 10 -5 26 -9 35 -10 21 -2 89 26 89 36 0 5 5 6 10 3 6 -3 13 1 16 9
3 9 15 16 26 16 10 0 17 -4 14 -8 -11 -18 40 -6 56 13 12 13 17 15 18 6 0 -11
3 -11 15 -1 8 7 15 9 15 4 0 -5 5 -2 10 8 7 11 19 15 40 12 18 -3 39 1 52 10
12 9 30 16 40 16 10 0 18 5 18 11 0 7 11 9 30 5 22 -4 29 -2 24 6 -5 8 -2 9
11 4 14 -5 15 -4 7 7 -9 11 -2 13 36 14 64 2 64 2 57 13 -4 6 1 7 11 3 13 -5
15 -3 9 8 -4 8 -5 11 0 7 4 -4 15 -2 23 5 13 10 14 9 7 -3 -6 -10 -2 -9 12 3
14 12 23 15 28 8 4 -8 12 -8 25 -1 10 5 28 10 40 10 14 0 20 5 17 13 -5 12 10
17 61 17 13 0 20 5 17 10 -4 7 3 7 19 0 18 -6 26 -6 26 1 0 6 5 7 10 4 6 -3
10 -1 10 4 0 6 9 11 20 11 12 0 34 7 49 15 16 8 31 11 34 8 4 -3 9 1 13 10 5
13 10 14 26 6 15 -8 19 -8 13 0 -4 8 2 10 20 7 20 -4 28 0 35 17 5 12 9 16 9
8 1 -11 4 -11 18 0 12 10 15 10 9 1 -4 -7 9 -3 29 8 41 23 49 25 39 8 -6 -9
-3 -9 9 1 9 7 23 11 32 8 8 -4 21 0 29 8 17 17 30 20 21 5 -3 -6 10 -1 29 11
20 12 36 18 36 14 0 -4 6 -2 13 4 8 6 18 7 22 3 5 -4 5 1 2 11 -4 10 -3 16 2
12 6 -3 14 2 19 11 5 9 13 17 18 17 5 1 8 6 6 10 -1 5 2 6 7 3 5 -3 14 1 21 9
7 8 16 12 21 9 5 -3 12 3 16 13 4 10 9 20 12 23 4 3 12 18 19 33 7 15 16 26
20 23 5 -3 9 1 9 9 0 8 -5 11 -10 8 -11 -6 -2 11 17 36 14 18 17 37 16 96 0
28 -5 52 -11 53 -6 3 -5 9 2 19 7 8 14 26 15 41 2 20 1 23 -6 12 -7 -11 -9 -3
-7 25 1 22 9 47 17 55 9 8 14 14 11 13 -2 -2 -10 2 -17 8 -14 11 -8 42 7 33 5
-3 9 0 9 5 0 6 -6 11 -12 11 -9 0 -8 3 2 10 13 8 13 11 1 22 -11 11 -13 11 -6
-1 5 -9 4 -12 -2 -8 -5 3 -9 20 -8 37 1 17 -2 33 -7 36 -4 3 -6 10 -3 15 3 5
-1 6 -9 3 -11 -4 -13 0 -9 14 3 14 -1 22 -16 27 -13 4 -18 11 -14 22 5 12 3
14 -8 8 -12 -7 -12 -6 -1 7 10 13 8 18 -12 32 -14 9 -28 16 -32 16 -4 0 -13 8
-21 18 -8 9 -12 12 -9 7 2 -6 -4 -11 -14 -11 -14 0 -16 3 -8 13 8 10 4 13 -16
13 -14 0 -26 6 -26 13 0 8 -4 7 -10 -3 -7 -10 -10 -11 -10 -2 0 8 -12 12 -34
10 -19 -1 -41 4 -50 11 -14 12 -16 11 -10 -4 6 -14 4 -16 -12 -8 -10 4 -28 8
-39 8 -11 0 -23 4 -27 10 -5 6 -8 5 -8 -3 0 -10 -5 -10 -22 -1 -19 9 -21 9
-11 -1 7 -7 24 -14 38 -14 14 -1 25 -5 25 -9 0 -6 -5 -9 -12 -6 -25 7 -48 12
-69 13 -15 0 -26 6 -24 11 1 6 0 7 -2 2 -3 -4 -9 -4 -15 -1 -6 4 -5 -2 1 -15
10 -17 9 -20 -4 -15 -13 5 -19 16 -17 34 1 9 -37 9 -43 0 -2 -4 3 -7 12 -6 9
0 17 -5 19 -12 1 -7 0 -8 -3 -2 -2 5 -9 10 -14 10 -6 0 -7 -6 -3 -12 6 -10 5
-10 -7 -1 -9 7 -30 13 -47 15 -18 1 -32 7 -32 12 0 5 -6 1 -14 -9 -13 -18 -13
-18 -24 1 -6 10 -12 14 -12 7 0 -6 -11 -10 -25 -8 -14 1 -25 -2 -25 -7 0 -5
-4 -7 -9 -3 -5 3 -13 1 -16 -5 -5 -8 -11 -7 -21 1 -8 6 -25 9 -38 7 -14 -3
-25 -2 -24 1 2 19 -5 20 -31 7 -16 -9 -31 -12 -35 -9 -3 4 -6 1 -6 -6 0 -9 -4
-8 -14 2 -9 8 -27 13 -43 10 -24 -4 -25 -3 -10 7 12 8 15 16 8 27 -10 18 -3
54 13 66 7 5 4 7 -6 5 -9 -2 -17 2 -17 7 -1 6 3 10 8 10 5 0 13 3 17 7 4 5 0
8 -9 8 -19 0 -23 15 -5 26 7 5 8 3 3 -6 -5 -9 -4 -11 4 -6 9 6 9 11 0 22 -14
17 -23 19 -13 2 4 -7 3 -8 -4 -4 -9 5 -7 16 5 39 20 38 25 59 12 51 -5 -3 -7
-9 -4 -14 3 -5 1 -11 -4 -14 -5 -4 -12 -2 -15 3 -4 5 -2 12 4 16 14 9 12 65
-2 66 -7 0 -4 4 7 9 11 5 14 9 8 9 -7 1 -13 6 -13 12 0 5 4 7 10 4 6 -4 7 2 1
17 -4 13 -7 32 -5 42 1 10 -4 25 -12 33 -8 8 -12 19 -8 24 8 14 26 0 18 -14
-5 -9 -3 -9 6 0 11 10 11 15 0 28 -8 10 -9 15 -1 15 6 0 11 5 11 10 0 6 -6 10
-12 10 -8 0 -13 13 -13 30 0 17 4 30 8 30 5 0 5 5 2 10 -3 6 -2 10 2 10 13 0
8 47 -7 64 -9 11 -10 29 -5 59 10 64 12 147 2 147 -4 0 -5 5 -2 10 3 6 0 13
-8 15 -17 7 -15 44 4 56 11 7 11 9 0 9 -7 0 -11 6 -8 15 4 8 2 17 -3 20 -6 4
-10 11 -10 16 0 6 4 8 8 5 5 -3 9 1 9 9 0 8 -4 15 -9 15 -6 0 -8 6 -5 13 2 6
-2 27 -9 45 -7 18 -9 30 -4 27 19 -12 21 36 2 63 -10 15 -17 33 -15 40 3 7 -1
19 -7 27 -7 8 -10 21 -7 29 4 11 1 13 -11 9 -14 -6 -15 -4 -4 9 15 18 6 46
-22 71 -11 10 -21 27 -23 39 -2 12 -14 35 -27 52 -13 17 -23 35 -24 40 -1 13
-54 46 -65 39 -5 -3 -21 10 -37 28 -25 31 -29 32 -46 19 -16 -13 -17 -13 -12
0 5 13 -1 16 -24 14 -24 -2 -29 1 -25 15 3 11 -2 17 -14 17 -10 0 -15 -5 -11
-11 3 -5 -2 -4 -11 4 -9 7 -17 10 -17 6 0 -4 -7 -2 -15 5 -8 7 -22 10 -30 6
-9 -3 -13 -2 -10 4 6 10 -15 14 -43 11 -8 -1 -19 2 -25 7 -18 14 -57 21 -57
10 0 -5 -4 -7 -8 -4 -20 12 -91 14 -96 3 -2 -7 -5 -3 -5 8 -1 17 -3 17 -11 5
-6 -10 -10 -11 -10 -2 0 7 -15 12 -41 12 -29 0 -38 3 -33 13 5 8 2 8 -9 -2 -9
-7 -17 -9 -17 -4 0 5 -12 15 -26 21 -14 7 -23 16 -20 21 3 5 0 11 -8 14 -8 3
-12 17 -10 34 2 20 -4 34 -22 50 -16 13 -23 27 -18 34 4 7 3 10 -2 7 -5 -3
-18 4 -29 15 -11 11 -13 16 -5 12 8 -4 -2 10 -22 31 l-37 39 22 27 c12 14 43
36 69 48 27 12 45 26 42 31 -3 5 1 9 8 9 7 0 22 14 33 30 11 16 23 30 27 30
13 0 138 127 138 141 0 7 12 25 26 39 24 22 43 56 49 86 2 7 12 21 24 33 12
12 21 27 21 34 0 18 23 67 32 67 4 0 5 6 2 14 -3 8 0 17 5 21 6 3 9 11 6 16
-4 5 -1 9 5 9 7 0 9 7 6 16 -5 14 -4 15 9 4 13 -11 15 -9 15 14 0 15 4 25 9
22 4 -3 6 5 4 18 -3 12 1 29 9 37 17 19 21 39 7 39 -5 0 -7 5 -4 10 4 6 11 8
16 5 5 -3 6 2 2 11 -5 12 -3 15 6 9 10 -6 11 -3 1 15 -8 15 -8 20 -1 16 7 -5
11 3 11 19 0 17 4 24 12 19 7 -4 8 -3 4 4 -13 22 -15 51 -3 61 7 5 12 29 11
53 0 24 6 49 13 57 8 7 12 20 9 28 -3 8 -1 11 4 8 6 -3 10 0 11 7 0 7 1 33 3
58 1 25 -2 48 -8 52 -7 5 -5 8 4 8 12 0 12 2 2 9 -11 7 -11 11 2 24 17 16 22
82 8 91 -16 9 -5 79 14 93 17 12 17 13 -2 14 -10 0 -13 3 -6 6 6 2 10 9 7 13
-3 5 -1 30 5 56 9 37 8 49 -2 56 -11 6 -10 8 0 8 10 0 10 4 -2 16 -20 19 -21
31 -2 15 11 -9 16 -9 22 0 5 8 3 9 -6 4 -9 -6 -10 -2 -5 15 4 13 3 20 -2 17
-5 -4 -10 0 -10 7 0 8 6 12 14 9 9 -4 11 0 7 11 -3 9 -10 14 -14 11 -12 -7
-19 18 -9 36 4 8 4 21 0 28 -5 7 -5 30 0 52 5 22 5 48 0 62 -6 14 -7 28 -4 31
4 3 0 6 -8 6 -12 0 -12 2 0 9 8 5 16 17 17 25 1 9 -1 14 -6 11 -13 -8 -18 17
-9 50 5 17 5 33 -1 39 -6 6 -5 16 1 28 7 13 6 18 -2 18 -6 0 -9 9 -6 20 3 10
0 21 -6 23 -9 3 -9 10 -1 28 6 13 8 33 4 44 -4 12 -3 23 4 28 8 5 7 11 -4 20
-18 14 -24 57 -9 57 6 0 9 6 6 14 -3 7 -1 18 4 23 7 7 5 15 -4 25 -9 9 -14 31
-12 61 1 33 -2 46 -10 43 -6 -2 -12 2 -12 10 0 7 5 10 11 7 8 -5 8 -3 0 8 -6
8 -12 38 -13 67 -2 30 -9 72 -17 94 -17 49 -17 51 -1 42 9 -6 9 -5 0 8 -7 8
-10 18 -6 21 3 4 1 7 -6 7 -8 0 -9 5 -2 19 6 10 8 21 5 23 -8 9 -16 51 -17 93
-1 22 -7 46 -15 54 -9 10 -10 17 -3 24 15 15 14 37 -2 37 -16 0 -17 41 -2 52
6 5 5 8 -3 8 -7 0 -12 6 -11 13 3 27 -1 38 -13 31 -10 -6 -10 -4 0 8 9 12 10
18 2 23 -8 5 -7 12 2 23 7 10 8 14 3 9 -11 -9 -33 54 -30 87 2 16 -1 23 -9 20
-15 -6 -16 47 -1 59 6 5 0 7 -13 4 -19 -5 -21 -3 -11 9 9 10 8 24 -2 59 -7 25
-17 45 -22 45 -4 0 -3 10 4 21 6 12 7 19 2 16 -4 -3 -14 1 -21 9 -7 8 -8 14
-3 14 6 0 9 13 8 29 -1 16 -5 27 -8 25 -7 -4 -32 65 -29 80 1 5 -4 13 -12 17
-10 7 -8 9 7 9 19 1 19 2 -1 10 -17 7 -20 14 -16 36 3 16 1 25 -5 21 -5 -3
-15 4 -23 16 -12 20 -12 21 4 8 14 -12 16 -12 10 3 -3 9 -11 16 -16 16 -6 0
-8 6 -5 14 3 7 0 19 -6 25 -15 15 -18 43 -4 34 7 -3 3 4 -8 17 -12 14 -14 20
-5 15 11 -6 10 -3 -2 12 -10 11 -18 31 -18 44 0 14 -6 31 -12 38 -11 10 -9 11
6 5 16 -6 17 -5 7 14 -7 12 -16 22 -22 22 -5 0 -15 12 -21 28 -7 15 -20 39
-31 55 -10 15 -15 27 -11 27 3 0 1 7 -6 15 -7 8 -9 15 -5 15 4 0 2 7 -5 15 -7
8 -9 15 -4 15 5 0 2 5 -6 10 -11 7 -11 10 -2 10 9 0 10 5 2 19 -5 11 -10 30
-10 43 0 13 -6 30 -12 37 -7 6 -14 15 -14 19 -1 4 -5 16 -8 27 -4 11 -6 24 -6
29 1 5 -2 12 -7 15 -14 10 -33 50 -33 70 0 21 -23 45 -33 34 -4 -3 -7 -1 -7 6
0 7 -5 9 -10 6 -6 -4 -10 -3 -9 2 4 25 -4 41 -32 57 -17 10 -28 20 -25 23 3 3
12 0 21 -7 8 -7 15 -9 15 -4 -1 32 -138 71 -155 44z m-2186 -334 c11 -14 6
-15 -27 -7 -4 1 8 21 12 21 2 0 9 -6 15 -14z m1346 -306 c3 -6 -1 -7 -9 -4
-18 7 -21 14 -7 14 6 0 13 -4 16 -10z m-1605 -4282 c0 -9 3 -9 8 -3 8 13 22
13 41 1 9 -6 12 -5 8 1 -3 5 0 10 8 10 8 0 12 -4 9 -9 -3 -4 -1 -8 5 -8 5 0 8
-9 6 -20 -3 -14 0 -18 8 -15 7 4 5 1 -4 -7 -25 -21 -57 -74 -39 -64 8 4 4 -1
-9 -12 -18 -14 -21 -21 -11 -27 9 -6 11 -4 5 5 -5 9 -4 11 3 6 9 -5 9 -13 2
-27 -6 -10 -8 -19 -4 -19 3 0 1 -6 -5 -13 -6 -8 -7 -18 -3 -22 4 -5 1 -5 -5
-1 -7 4 -13 2 -13 -3 0 -6 -5 -11 -11 -11 -5 0 -8 4 -4 9 3 5 0 13 -6 17 -7 4
-9 3 -6 -3 4 -6 1 -15 -6 -21 -9 -8 -12 -2 -11 27 0 20 4 43 8 49 4 7 1 12 -9
12 -9 0 -13 5 -10 10 4 6 11 7 17 4 7 -4 8 -2 4 4 -4 7 -14 12 -21 12 -8 0
-12 6 -9 14 3 8 0 17 -7 22 -8 5 -10 3 -4 -7 5 -8 5 -11 0 -7 -5 5 -10 22 -12
39 -2 22 0 28 10 23 9 -6 9 -5 0 7 -10 12 -10 18 -1 27 16 16 68 15 68 0z
m105 2 c-3 -5 -1 -10 4 -10 6 0 11 -4 11 -10 0 -5 -6 -10 -14 -10 -8 0 -13 8
-11 18 5 23 4 22 11 22 3 0 2 -4 -1 -10z m-3945 -160 c0 -5 -2 -10 -4 -10 -3
0 -8 5 -11 10 -3 6 -1 10 4 10 6 0 11 -4 11 -10z m7470 -700 c0 -5 -5 -10 -11
-10 -5 0 -7 5 -4 10 3 6 8 10 11 10 2 0 4 -4 4 -10z m43 -843 c3 -8 -1 -14 -8
-14 -7 0 -11 6 -8 14 3 7 6 13 8 13 2 0 5 -6 8 -13z m602 4 c3 -5 2 -12 -3
-15 -5 -3 -9 1 -9 9 0 17 3 19 12 6z m-8931 -669 c3 -5 -1 -9 -9 -9 -8 0 -12
4 -9 9 3 4 7 8 9 8 2 0 6 -4 9 -8z m-507 -1007 c0 -8 -4 -12 -9 -9 -5 3 -6 10
-3 15 9 13 12 11 12 -6z"/>
<path d="M5460 3900 c-9 -6 -10 -10 -3 -10 6 0 15 5 18 10 8 12 4 12 -15 0z"/>
<path d="M6395 8380 c-3 -5 -1 -10 4 -10 6 0 11 5 11 10 0 6 -2 10 -4 10 -3 0
-8 -4 -11 -10z"/>
<path d="M8368 8223 c7 -3 16 -2 19 1 4 3 -2 6 -13 5 -11 0 -14 -3 -6 -6z"/>
<path d="M4326 5993 c-6 -14 -5 -15 5 -6 7 7 10 15 7 18 -3 3 -9 -2 -12 -12z"/>
<path d="M1595 1980 c3 -5 8 -10 11 -10 2 0 4 5 4 10 0 6 -5 10 -11 10 -5 0
-7 -4 -4 -10z"/>
<path d="M4350 696 c0 -2 7 -7 16 -10 8 -3 12 -2 9 4 -6 10 -25 14 -25 6z"/>
</g>
</svg>
