<?xml version="1.0" standalone="no"?>
<!DOCTYPE svg PUBLIC "-//W3C//DTD SVG 20010904//EN"
 "http://www.w3.org/TR/2001/REC-SVG-20010904/DTD/svg10.dtd">
<svg version="1.0" xmlns="http://www.w3.org/2000/svg"
 width="500.000000pt" height="500.000000pt" viewBox="0 0 500.000000 500.000000"
 preserveAspectRatio="xMidYMid meet">
<metadata>
Created by potrace 1.14, written by Peter Selinger 2001-2017
</metadata>
<g transform="translate(0.000000,500.000000) scale(0.100000,-0.100000)"
fill="#000000" stroke="none">
<path d="M2636 4422 c-4 -7 -14 -11 -22 -8 -7 3 -20 -4 -27 -14 -8 -11 -16
-17 -19 -14 -3 3 -9 -12 -12 -33 -10 -52 -28 -103 -38 -103 -4 0 -8 -7 -8 -15
0 -8 -6 -15 -14 -15 -8 0 -24 -12 -35 -26 -11 -14 -24 -23 -28 -21 -5 3 -16
-1 -26 -8 -15 -11 -15 -13 -2 -18 9 -4 12 -13 8 -23 -4 -10 -2 -15 3 -11 6 3
16 2 23 -2 18 -11 -66 -41 -107 -37 -17 1 -28 -2 -24 -6 5 -5 23 -10 40 -11
18 -1 32 -6 32 -12 0 -5 5 -3 11 5 9 13 10 13 6 0 -2 -8 -16 -16 -32 -18 l-28
-4 24 -21 c39 -36 33 -43 -37 -42 -55 1 -69 -3 -90 -22 -13 -12 -27 -22 -30
-22 -3 0 -9 -3 -12 -7 -4 -4 3 -4 16 -1 13 3 22 1 22 -6 0 -6 7 -2 15 9 15 18
15 18 8 0 -5 -15 -3 -17 8 -12 8 4 5 1 -6 -8 -11 -8 -25 -20 -32 -26 -7 -5
-17 -10 -23 -10 -6 0 -23 -11 -38 -25 l-27 -26 35 14 c19 7 42 13 50 12 8 0
26 5 39 12 15 7 29 9 35 3 6 -4 16 -10 21 -12 15 -5 7 -20 -22 -44 -21 -18
-22 -21 -7 -20 29 2 28 -19 -1 -22 -13 -2 -32 -13 -40 -25 -8 -12 -15 -17 -15
-12 0 6 -5 3 -10 -5 -5 -8 -10 -19 -10 -25 0 -5 5 -3 10 5 5 8 10 11 10 5 0
-5 5 -3 10 5 9 13 11 13 20 0 8 -12 10 -12 10 5 0 16 2 17 9 6 7 -10 4 -19 -7
-28 -16 -11 -16 -12 1 -13 17 0 17 -1 0 -24 -10 -13 -21 -22 -24 -20 -4 2 -12
-3 -19 -11 -10 -12 -9 -15 8 -15 12 0 24 -4 27 -10 3 -5 3 -10 -2 -10 -18 0
-85 -69 -77 -81 4 -8 3 -10 -5 -5 -14 9 -43 -12 -35 -26 3 -5 -2 -18 -12 -29
-28 -31 3 -22 34 11 41 43 102 60 102 29 0 -6 -4 -7 -10 -4 -5 3 -10 1 -10 -5
0 -6 -5 -8 -12 -4 -6 4 -8 3 -5 -3 4 -6 0 -16 -8 -23 -8 -7 -15 -20 -15 -29 0
-10 3 -12 8 -5 4 6 16 14 27 17 17 6 18 5 5 -5 -8 -7 -22 -21 -29 -31 -13 -17
-13 -18 1 -15 9 1 16 -1 15 -7 -1 -5 -8 -9 -14 -9 -7 1 -13 -5 -13 -13 0 -8
-14 -28 -31 -44 -17 -16 -26 -29 -21 -29 6 0 13 4 16 9 8 13 41 7 40 -7 -2
-29 -5 -33 -15 -27 -6 4 -13 -2 -16 -14 -3 -12 -12 -21 -20 -21 -7 0 -13 -6
-12 -12 3 -26 -1 -38 -13 -38 -14 0 -108 -83 -108 -94 0 -3 10 0 23 9 13 8 27
12 30 8 4 -3 7 -1 7 5 0 11 55 11 66 0 3 -4 3 -12 -1 -18 -5 -8 -11 -7 -23 2
-11 9 -13 9 -9 1 5 -7 -1 -17 -13 -23 -18 -9 -19 -14 -9 -26 7 -8 8 -14 3 -13
-21 4 -34 -2 -34 -16 0 -8 -9 -19 -21 -25 -22 -12 -47 -32 -89 -71 -15 -13
-18 -18 -8 -10 10 8 18 11 18 7 0 -4 7 0 16 8 18 19 38 21 28 4 -5 -9 -3 -9 9
1 9 7 15 17 12 21 -10 16 21 16 47 1 26 -16 26 -17 7 -29 -10 -7 -19 -21 -19
-33 0 -13 -4 -18 -12 -13 -6 4 -8 3 -5 -3 4 -5 -5 -20 -19 -32 -14 -12 -23
-26 -19 -29 4 -4 10 -1 12 6 4 10 8 10 19 1 11 -9 13 -9 9 2 -3 8 3 19 13 26
17 10 19 9 17 -10 -1 -12 -3 -22 -4 -22 -2 0 -5 -11 -7 -25 -3 -14 -9 -26 -14
-28 -6 -2 -10 -11 -10 -21 0 -9 -6 -23 -12 -29 -7 -7 -13 -16 -13 -20 -2 -24
-19 -52 -31 -52 -12 0 -14 -7 -9 -31 5 -22 4 -29 -4 -25 -6 4 -11 3 -11 -3 0
-5 6 -12 13 -14 7 -3 4 -6 -6 -6 -11 -1 -15 -6 -11 -13 5 -7 3 -8 -6 -3 -10 6
-12 4 -7 -9 5 -11 3 -15 -5 -10 -8 5 -9 2 -4 -11 5 -15 4 -16 -8 -6 -10 9 -21
9 -32 3 -11 -6 -13 -11 -5 -16 6 -4 11 -2 11 4 0 6 5 8 11 4 8 -4 7 -9 -2 -15
-12 -7 -12 -9 0 -9 8 0 12 -3 8 -6 -3 -3 -20 4 -36 16 -17 12 -32 17 -32 11
-2 -14 -6 -30 -9 -33 -1 -2 -3 -13 -4 -25 -2 -13 -6 -26 -11 -30 -4 -5 -5 0
-2 10 4 9 2 17 -4 17 -6 0 -8 4 -4 9 3 5 2 12 -3 14 -4 3 -7 -13 -7 -34 0 -33
3 -39 17 -36 9 3 19 -2 22 -10 5 -11 2 -13 -9 -9 -9 3 -14 2 -10 -3 9 -15 -6
-41 -24 -41 -10 0 -21 -3 -25 -7 -8 -8 -18 -9 -456 -18 -390 -8 -545 -8 -569
0 -10 3 -27 -4 -40 -16 -31 -30 -41 13 137 -599 22 -74 61 -211 87 -305 26
-93 60 -213 75 -265 15 -52 24 -97 20 -100 -4 -3 -6 -13 -4 -22 1 -10 -2 -20
-7 -24 -5 -3 -9 -1 -9 4 0 6 -7 13 -16 16 -12 4 -15 2 -10 -9 3 -8 1 -15 -4
-15 -16 0 -60 23 -60 32 0 4 -5 8 -12 8 -6 0 -3 -9 7 -20 23 -26 0 -28 -28 -3
-19 18 -20 17 -8 -5 12 -22 11 -23 -7 -13 -14 8 -24 6 -38 -4 -11 -8 -29 -15
-40 -15 -12 0 -25 -7 -28 -16 -4 -10 -12 -14 -22 -10 -9 4 -22 2 -29 -4 -6 -5
-26 -8 -43 -6 -32 3 -46 -16 -19 -28 6 -3 2 -3 -10 -1 -12 3 -24 1 -28 -5 -4
-7 -12 -7 -25 0 -14 7 -21 5 -34 -13 -9 -12 -14 -16 -11 -9 3 6 1 12 -4 12 -6
0 -11 -6 -11 -12 0 -8 -3 -9 -8 -3 -12 17 -32 16 -25 -2 5 -12 2 -15 -10 -10
-9 3 -19 2 -22 -3 -4 -6 2 -10 12 -11 10 0 13 -3 6 -5 -6 -3 -24 3 -39 13 -21
14 -26 14 -22 3 3 -8 10 -14 16 -13 5 1 12 -3 15 -11 8 -20 -27 -12 -53 12
-13 12 -29 22 -34 21 -6 0 -5 -3 2 -6 6 -2 12 -11 12 -19 0 -9 5 -12 12 -8 7
4 8 3 4 -4 -5 -9 -13 -9 -29 0 -19 10 -20 9 -9 -4 10 -13 8 -15 -14 -10 -19 3
-31 -1 -42 -14 -13 -18 -14 -17 -7 6 7 22 6 23 -9 11 -12 -10 -19 -11 -30 -2
-11 10 -16 8 -21 -9 -3 -11 -11 -18 -16 -14 -5 3 -7 10 -4 15 4 5 2 9 -3 9
-14 0 -22 -26 -11 -37 5 -5 1 -9 -11 -9 -12 0 -19 5 -16 13 3 7 0 15 -6 19 -6
4 -8 3 -5 -3 4 -6 -1 -17 -10 -24 -9 -8 -14 -9 -10 -2 5 8 1 8 -17 0 -13 -7
-22 -16 -19 -21 4 -5 1 -6 -6 -2 -6 4 -8 12 -5 18 4 6 2 8 -4 4 -6 -3 -13 -2
-17 3 -3 6 -14 2 -25 -9 -23 -23 -27 -38 -5 -20 10 9 15 9 15 1 0 -6 -3 -11
-7 -12 -5 0 -19 -2 -32 -5 -20 -4 -22 -2 -11 11 11 13 10 14 -4 9 -14 -5 -16
-28 -16 -186 0 -156 2 -179 15 -174 10 3 15 -1 15 -12 0 -13 2 -14 9 -3 6 9
11 10 15 3 4 -6 14 -8 23 -5 12 5 15 2 11 -14 -3 -12 0 -20 8 -20 8 0 14 4 14
8 0 5 7 6 15 3 8 -4 15 -1 15 7 0 7 3 9 6 6 4 -4 1 -13 -6 -22 -11 -13 -10
-14 6 -8 10 3 22 11 26 17 5 7 8 3 8 -8 0 -14 3 -16 13 -7 10 8 17 7 26 -2 9
-9 369 -12 1643 -13 897 0 1644 2 1659 4 16 2 27 8 24 12 -3 5 4 6 14 3 14 -3
19 0 18 14 -2 13 5 18 20 17 18 0 20 2 11 14 -10 11 -8 16 5 24 10 5 15 13 12
18 -3 5 0 12 7 16 7 4 10 4 6 -1 -4 -4 0 -14 10 -21 14 -11 15 -15 3 -26 -12
-11 -13 -10 -7 7 6 16 5 18 -5 7 -11 -10 -10 -16 5 -30 14 -13 17 -14 14 -2
-2 9 3 14 13 12 18 -2 33 23 23 39 -3 5 -3 9 0 9 3 0 12 -12 21 -27 15 -28 15
-28 11 -3 -1 14 -1 19 1 13 5 -14 26 -17 37 -5 4 4 13 7 19 7 7 0 11 8 11 18
-1 9 2 14 7 11 5 -3 9 -14 9 -24 0 -14 -6 -18 -20 -15 -13 3 -18 0 -14 -7 5
-7 2 -8 -6 -3 -9 5 -11 4 -6 -4 6 -8 12 -9 20 -2 9 7 17 7 26 -2 10 -9 11 -9
6 0 -5 9 1 13 18 13 14 0 26 -6 26 -12 0 -7 7 -2 16 10 8 12 20 22 26 22 6 0
3 -10 -8 -21 l-19 -21 36 20 c28 16 40 18 50 9 11 -10 11 -9 0 6 -14 18 -7 22
27 18 16 -2 15 6 -2 12 -8 3 -27 -4 -43 -15 -15 -12 -25 -18 -20 -13 4 5 -1
18 -10 29 -18 21 -18 21 4 2 20 -17 23 -17 29 -2 3 9 10 14 14 11 5 -3 14 3
20 12 10 15 11 15 6 1 -3 -11 1 -15 12 -13 9 2 23 4 30 4 6 1 12 8 12 17 0 9
5 12 12 8 8 -5 9 -1 5 12 -6 17 -6 17 5 3 7 -9 19 -14 27 -11 9 3 11 0 6 -8
-5 -8 -4 -11 3 -6 6 3 9 15 7 26 -3 15 2 20 18 20 18 0 19 -2 7 -10 -12 -7
-10 -9 8 -7 17 1 21 6 16 22 -6 17 -5 18 9 6 9 -7 15 -17 12 -21 -3 -4 6 -10
19 -12 17 -4 23 -1 19 9 -3 7 -10 10 -16 6 -5 -3 -7 -1 -3 5 4 7 17 8 36 2 17
-5 28 -5 25 0 -3 5 3 16 12 26 10 10 17 20 16 23 -2 3 3 6 10 6 6 1 11 6 10
12 -1 6 4 14 12 17 9 3 15 0 15 -8 0 -9 11 -12 33 -11 51 4 53 5 37 15 -12 8
-10 10 10 10 14 0 21 4 15 8 -5 4 -11 13 -13 21 -2 11 0 12 11 3 8 -7 17 -9
20 -5 4 3 7 0 7 -7 0 -7 3 -10 6 -7 4 4 1 14 -7 24 -12 16 -11 15 16 -1 20
-13 26 -15 18 -4 -7 8 -9 19 -5 23 4 5 1 5 -7 0 -9 -5 -12 -4 -7 3 10 16 26
15 26 -2 0 -8 7 -17 16 -20 13 -5 14 -3 6 6 -7 9 -6 17 4 26 12 11 14 10 14
-3 0 -8 4 -15 10 -15 6 0 6 9 0 25 -5 14 -8 25 -7 26 16 5 36 6 36 1 -3 -20 2
-32 11 -27 6 4 7 12 3 18 -5 9 -2 8 8 0 13 -10 16 -10 16 2 0 8 -5 15 -10 15
-5 0 -4 6 2 13 6 8 10 16 8 18 -1 2 6 -5 15 -16 9 -11 20 -16 24 -12 4 4 2 7
-4 7 -6 0 -9 7 -5 16 5 12 7 13 14 2 7 -11 10 -10 21 1 11 11 11 13 -1 6 -9
-5 -12 -4 -7 3 10 17 14 15 30 -15 15 -27 15 -27 16 -5 0 16 4 21 13 16 7 -5
6 0 -3 11 -14 17 -13 18 3 12 10 -4 21 -7 23 -7 3 0 2 -6 -2 -13 -5 -8 -2 -8
9 2 9 7 17 20 17 29 0 12 5 11 20 -6 12 -12 24 -22 27 -22 4 0 2 5 -5 12 -17
17 -15 31 3 24 8 -3 14 0 12 6 -1 6 4 13 12 16 8 2 11 0 7 -6 -4 -6 3 -6 18 1
13 7 22 16 19 22 -3 5 0 4 8 -3 18 -17 39 -15 39 3 0 8 -5 15 -11 15 -5 0 -7
5 -4 10 4 7 12 7 25 0 24 -13 26 -13 44 6 9 8 13 21 9 27 -11 18 -12 38 -2 31
5 -3 9 0 9 5 0 6 -5 11 -11 11 -5 0 -7 5 -4 10 3 6 1 10 -4 10 -6 0 -10 6 -8
13 1 6 -3 11 -10 10 -7 -2 -10 6 -8 16 2 10 -3 30 -10 45 -8 14 -10 26 -6 26
5 0 11 11 13 25 3 13 2 24 -1 23 -3 0 -14 0 -25 1 -15 1 -16 4 -6 16 10 12 8
14 -7 10 -10 -2 -31 -8 -46 -14 -16 -6 -38 -11 -50 -10 -15 0 -17 2 -7 6 16 7
41 36 35 41 -2 2 -15 -4 -29 -13 -14 -9 -31 -15 -38 -12 -7 2 -21 0 -30 -4
-10 -6 -19 -5 -23 1 -3 5 -15 6 -28 1 -19 -7 -23 -5 -24 11 -3 32 -13 35 -33
10 l-18 -22 -25 30 c-22 25 -28 28 -39 16 -13 -12 -47 -27 -75 -32 -9 -2 -9 4
2 19 19 27 19 42 0 25 -38 -34 -47 -39 -61 -34 -7 3 -14 13 -14 23 0 10 -4 14
-8 8 -12 -16 -32 -16 -32 1 0 8 -5 12 -10 9 -6 -4 -7 -12 -3 -18 4 -7 0 -6
-10 2 -9 7 -17 10 -17 5 0 -5 -18 -10 -40 -11 -40 -1 -51 12 -29 34 7 7 7 13
1 17 -13 8 -3 85 15 113 9 13 11 23 5 23 -6 0 -9 9 -7 20 2 11 0 22 -5 25 -5
3 -5 18 0 35 7 24 6 30 -7 30 -13 0 -13 3 -3 15 9 11 9 15 1 15 -7 0 -10 4 -6
9 3 5 -2 16 -10 24 -11 12 -12 17 -2 20 9 4 9 6 -1 6 -9 1 -10 6 -2 20 7 14 7
22 -1 27 -8 4 -7 9 2 15 12 8 11 11 -1 19 -8 5 -10 10 -4 10 13 0 12 45 0 57
-5 4 -6 3 -2 -4 3 -6 2 -14 -3 -18 -6 -3 -8 4 -6 16 3 14 -3 29 -15 39 -11 10
-20 25 -20 34 0 10 -4 14 -10 11 -5 -3 -10 1 -10 9 0 9 -7 16 -16 16 -8 0 -12
4 -9 10 3 5 1 10 -4 10 -6 0 -10 6 -9 13 2 6 -4 11 -12 9 -11 -2 -10 2 3 12
11 8 26 12 35 9 10 -4 14 -3 10 1 -11 13 -42 14 -58 2 -13 -10 -13 -9 -1 6 7
10 17 16 21 13 11 -7 22 24 13 38 -3 7 2 5 13 -4 10 -9 25 -14 33 -11 8 2 11
0 7 -6 -3 -6 -2 -13 3 -16 5 -4 8 1 7 10 -1 8 -8 19 -15 24 -8 4 -10 13 -7 19
4 6 3 11 -2 11 -12 0 -77 60 -66 60 5 1 -4 7 -21 15 -18 8 -23 14 -13 14 14 1
15 6 8 31 -5 17 -7 30 -5 30 3 0 0 12 -6 28 -6 15 -13 46 -16 70 -3 34 -1 42
12 42 15 0 15 1 1 16 -20 19 -20 21 -1 21 8 0 17 -9 21 -19 9 -29 22 -21 18
13 -2 18 0 28 6 24 6 -3 10 -13 10 -22 0 -24 10 -10 16 23 7 39 10 40 36 18
13 -10 20 -15 16 -10 -4 5 -3 15 3 23 6 7 7 13 2 13 -10 0 -10 46 0 57 4 3 7
-3 7 -14 0 -11 6 -20 14 -20 10 0 11 9 5 36 -4 19 -6 37 -3 40 2 2 4 -1 4 -7
0 -6 7 -9 16 -5 13 5 13 7 2 14 -11 7 -11 9 1 9 11 0 11 3 1 15 -7 8 -9 15 -5
15 4 0 2 7 -5 14 -10 13 -7 14 15 10 20 -3 25 -1 19 8 -14 22 -10 85 5 99 13
11 14 11 8 -4 -3 -9 -2 -19 4 -22 5 -4 7 -10 5 -14 -3 -4 1 -8 9 -8 8 0 12 4
9 8 -2 4 0 11 6 14 8 5 8 11 0 20 -8 10 -8 14 1 17 8 3 9 9 4 19 -14 22 -12
43 8 57 19 15 23 36 5 27 -7 -4 -2 3 11 14 14 13 18 21 10 21 -11 0 -11 2 1
10 11 7 11 10 2 10 -7 0 -11 4 -8 9 3 5 -1 14 -9 21 -8 7 -15 18 -15 24 0 6 5
3 11 -7 6 -9 15 -14 21 -11 6 4 8 2 4 -4 -3 -6 -1 -14 6 -18 7 -4 10 -4 6 1
-4 4 -2 15 4 24 7 9 9 13 4 9 -7 -6 -47 34 -86 87 -15 19 -15 19 11 0 15 -11
25 -23 22 -27 -2 -5 1 -8 6 -8 18 0 12 39 -9 57 -26 23 -26 36 1 28 15 -5 19
-4 15 4 -4 6 -13 11 -19 11 -7 0 -19 9 -27 19 -7 11 -18 17 -23 14 -6 -3 -7
-1 -3 6 6 9 11 9 22 0 11 -9 14 -9 14 1 0 7 -8 19 -17 27 -10 8 -13 12 -7 9
14 -7 9 45 -6 74 -6 11 -8 20 -4 20 3 0 1 7 -6 15 -7 8 -10 21 -7 30 4 8 1 17
-5 21 -7 5 -8 2 -3 -6 5 -9 4 -11 -4 -6 -18 12 -1 27 22 21 16 -5 18 -4 8 3
-8 6 -10 15 -6 22 5 9 4 11 -3 6 -7 -4 -12 -1 -12 8 0 9 -5 16 -11 16 -5 0 -7
5 -4 10 3 6 0 10 -8 10 -7 0 -14 6 -14 14 0 8 7 12 16 9 9 -3 1 5 -16 18 -18
13 -33 28 -33 32 0 9 61 4 78 -7 7 -4 12 -3 12 3 0 5 -8 15 -17 20 -10 6 -14
11 -9 11 6 0 -3 14 -20 32 -16 17 -24 29 -19 26 6 -3 19 -2 30 3 18 7 18 8 2
8 -10 1 -15 6 -12 12 5 7 15 5 31 -6 13 -8 24 -13 24 -9 0 10 -70 74 -80 74
-6 0 -10 5 -10 10 0 12 22 9 32 -5 5 -6 8 -6 8 2 0 6 -6 18 -14 26 -12 12 -12
16 4 27 16 12 17 15 3 28 -10 11 -11 17 -3 22 8 5 7 12 -4 23 -10 10 -12 17
-5 19 8 3 6 10 -5 21 -10 9 -14 17 -9 17 4 0 1 5 -7 10 -9 6 -10 10 -3 10 7 0
3 15 -10 40 -16 30 -27 39 -40 36 -15 -4 -16 -2 -6 10 6 7 15 12 19 9 4 -3 13
2 20 10 10 12 5 13 -29 10 -23 -2 -41 -3 -41 -1 0 2 6 19 13 37 10 27 15 82 8
108 -1 2 -9 -7 -20 -20 l-18 -23 1 51 c0 28 4 55 9 59 11 11 9 26 -3 19 -6 -3
-19 -3 -31 0 -20 7 -20 7 2 26 22 19 17 24 -25 19 -15 -1 -17 2 -11 17 17 40
6 123 -17 123 -5 0 -6 10 -3 22 6 17 4 20 -9 15 -14 -5 -16 -3 -12 13 3 11 9
29 12 40 3 11 1 20 -5 20 -6 0 -12 -4 -12 -10 -1 -5 -2 -14 -3 -20 0 -5 -7
-15 -14 -22 -11 -11 -12 -10 -7 3 3 9 -3 23 -15 34 -11 10 -20 13 -20 7 0 -6
-6 -9 -14 -6 -9 3 -17 -6 -24 -25 -6 -17 -14 -31 -17 -31 -3 0 -3 5 1 12 4 7
3 8 -4 4 -7 -4 -12 -14 -12 -22 0 -12 -4 -12 -20 -4 -11 6 -18 15 -15 21 4 5
1 9 -4 9 -6 0 -11 -10 -11 -22 0 -22 -19 -63 -20 -43 0 6 -9 21 -20 35 l-19
25 10 -38 c8 -29 7 -42 -5 -59 l-15 -21 -10 26 c-13 33 -31 36 -25 5 2 -13 -1
-10 -7 7 -6 17 -17 44 -25 62 -8 17 -14 38 -14 48 0 9 -4 14 -9 11 -5 -3 -8
-19 -7 -36 1 -16 -1 -30 -4 -30 -3 0 -4 -16 -2 -35 4 -34 -4 -43 -23 -27 -6 4
-7 3 -3 -2 13 -16 9 -25 -13 -37 -17 -9 -20 -8 -14 2 6 8 4 11 -7 7 -12 -5
-14 0 -12 24 5 40 -17 32 -29 -11 -5 -22 -13 -31 -22 -27 -9 3 -12 0 -8 -10 3
-7 0 -14 -6 -14 -6 0 -11 -7 -11 -15 0 -8 -4 -15 -9 -15 -4 0 -7 11 -5 26 2
21 0 23 -12 13 -17 -14 -15 -16 -43 42 -18 39 -62 102 -61 88 0 -2 9 -35 19
-74 10 -38 15 -72 10 -73 -5 -2 -7 -7 -4 -12 5 -9 -24 -44 -31 -37 -2 2 -5 15
-6 29 -1 13 -8 25 -15 25 -6 0 -10 -4 -7 -8 2 -4 0 -10 -6 -14 -5 -3 -15 3
-22 14 -9 15 -16 17 -31 10 -10 -6 -16 -17 -13 -24 3 -9 -1 -12 -15 -10 -11 2
-17 0 -14 -5 3 -5 1 -11 -5 -15 -10 -6 -13 4 -12 43 1 12 -2 20 -7 18 -4 -3
-13 3 -21 14 -10 14 -16 15 -25 7 -7 -7 -10 -16 -7 -21 3 -5 0 -6 -6 -2 -7 4
-12 2 -12 -3 0 -6 -5 -11 -11 -11 -8 0 -8 5 1 15 7 8 9 15 4 15 -5 0 -2 5 6
10 8 5 10 10 4 10 -6 0 -19 -9 -29 -20 -10 -11 -23 -20 -29 -20 -7 0 -7 3 -1
8 13 9 15 52 3 52 -6 0 -8 -7 -5 -15 4 -8 1 -17 -5 -21 -6 -4 -8 -3 -4 4 3 6
2 13 -4 17 -5 3 -10 17 -10 31 0 13 -5 24 -11 24 -7 0 -9 11 -6 30 4 16 3 31
-1 34 -7 4 -12 -14 -16 -59 0 -12 -8 -21 -17 -21 -13 0 -14 7 -8 41 4 22 5 42
3 44 -7 7 -84 -83 -84 -99 -1 -12 -3 -12 -14 2 -7 10 -16 15 -20 11 -4 -4 -9
3 -13 15 -3 12 -10 22 -15 22 -6 0 -7 7 -4 16 3 8 2 12 -4 9 -17 -11 -4 54 16
78 19 21 19 21 -1 7 -39 -29 -65 -59 -65 -75 0 -8 -5 -15 -11 -15 -5 0 -8 -4
-4 -9 3 -5 2 -12 -3 -15 -10 -6 -34 21 -71 79 -14 23 -32 40 -38 38 -6 -2 -13
4 -15 14 -3 14 -5 15 -12 5z m790 -269 c-11 -11 -17 4 -9 23 7 18 8 18 11 1 2
-10 1 -21 -2 -24z m-996 7 c0 -5 -5 -10 -11 -10 -5 0 -7 5 -4 10 3 6 8 10 11
10 2 0 4 -4 4 -10z m700 -20 c0 -5 -5 -10 -11 -10 -5 0 -7 5 -4 10 3 6 8 10
11 10 2 0 4 -4 4 -10z m-655 -462 c-30 -18 -54 -20 -31 -2 11 8 27 14 35 14
12 -1 11 -4 -4 -12z m1809 -597 c3 -5 -1 -14 -8 -20 -10 -9 -16 -9 -21 -1 -4
6 -1 9 7 8 7 -2 12 3 11 10 -3 14 3 16 11 3z m-24 -46 c7 -9 8 -15 2 -15 -5 0
-12 7 -16 15 -3 8 -4 15 -2 15 2 0 9 -7 16 -15z m-2140 -50 c0 -2 -10 -9 -22
-15 -22 -11 -22 -10 -4 4 21 17 26 19 26 11z m2200 -399 c0 -3 -4 -8 -10 -11
-5 -3 -10 -1 -10 4 0 6 5 11 10 11 6 0 10 -2 10 -4z m-2432 -134 c2 -7 -2 -11
-10 -10 -7 2 -12 -3 -10 -10 1 -8 -2 -11 -8 -7 -8 5 -8 11 -1 19 6 7 7 16 3
21 -4 4 -1 6 7 3 8 -2 17 -10 19 -16z m2709 -1344 c-3 -8 -6 -5 -6 6 -1 11 2
17 5 13 3 -3 4 -12 1 -19z m-4323 -346 c3 -5 -1 -9 -9 -9 -8 0 -15 4 -15 9 0
4 4 8 9 8 6 0 12 -4 15 -8z m-184 -42 c0 -5 -2 -10 -4 -10 -3 0 -8 5 -11 10
-3 6 -1 10 4 10 6 0 11 -4 11 -10z m4260 -136 c0 -8 5 -12 10 -9 6 3 10 1 10
-4 0 -18 -19 -12 -30 8 -13 25 -13 34 0 26 6 -3 10 -13 10 -21z m-125 -72 c-3
-3 -11 0 -18 7 -9 10 -8 11 6 5 10 -3 15 -9 12 -12z m-359 -125 c2 -14 -1 -15
-17 -6 -11 5 -17 15 -13 20 9 14 27 6 30 -14z"/>
<path d="M3960 4379 c0 -11 4 -18 10 -14 5 3 7 12 3 20 -7 21 -13 19 -13 -6z"/>
<path d="M2995 4360 c-3 -5 -2 -10 4 -10 5 0 13 5 16 10 3 6 2 10 -4 10 -5 0
-13 -4 -16 -10z"/>
<path d="M2750 4326 c0 -9 5 -16 10 -16 6 0 10 4 10 9 0 6 -4 13 -10 16 -5 3
-10 -1 -10 -9z"/>
<path d="M3550 4285 c0 -8 4 -15 8 -15 5 0 9 7 9 15 0 8 -4 15 -9 15 -4 0 -8
-7 -8 -15z"/>
<path d="M3587 4219 c7 -7 15 -10 18 -7 3 3 -2 9 -12 12 -14 6 -15 5 -6 -5z"/>
<path d="M2274 3838 c-4 -7 -4 -10 1 -6 4 4 13 0 20 -9 11 -14 12 -14 19 3 4
10 4 15 0 11 -4 -4 -13 -2 -20 4 -9 7 -14 6 -20 -3z"/>
<path d="M2010 2699 c0 -5 5 -7 10 -4 6 3 10 8 10 11 0 2 -4 4 -10 4 -5 0 -10
-5 -10 -11z"/>
<path d="M4337 2683 c-11 -11 -8 -20 7 -20 8 0 12 6 9 14 -6 15 -7 15 -16 6z"/>
<path d="M1966 2645 c-18 -14 -18 -14 1 -12 11 0 20 7 20 14 0 7 -1 13 -1 13
-1 0 -9 -7 -20 -15z"/>
<path d="M1952 2599 c2 -8 -3 -13 -10 -11 -8 1 -11 -2 -8 -7 3 -5 -1 -14 -9
-21 -19 -16 -19 -27 1 -27 8 0 24 13 34 28 18 24 18 28 4 40 -12 10 -15 10
-12 -2z m2 -34 c-9 -14 -18 -25 -21 -25 -5 0 5 18 20 38 17 22 18 13 1 -13z"/>
<path d="M1894 2556 c-3 -8 -14 -13 -25 -11 -20 4 -35 -10 -20 -19 5 -4 12 -2
16 4 4 6 10 8 15 5 5 -3 14 4 20 15 6 11 8 20 5 20 -3 0 -8 -6 -11 -14z"/>
<path d="M1794 2400 c0 -13 4 -16 10 -10 7 7 7 13 0 20 -6 6 -10 3 -10 -10z"/>
<path d="M4233 2325 c0 -8 4 -12 9 -9 5 3 6 10 3 15 -9 13 -12 11 -12 -6z"/>
<path d="M740 926 c0 -2 7 -6 15 -10 8 -3 15 -1 15 4 0 6 -7 10 -15 10 -8 0
-15 -2 -15 -4z"/>
<path d="M616 873 c-6 -14 -5 -15 5 -6 7 7 10 15 7 18 -3 3 -9 -2 -12 -12z"/>
<path d="M322 804 c10 -10 20 -16 22 -13 3 3 -5 11 -17 18 -21 13 -21 12 -5
-5z"/>
<path d="M4765 730 c-4 -6 -3 -16 3 -22 13 -13 23 4 13 21 -7 10 -10 10 -16 1z"/>
</g>
</svg>
