<svg xmlns="http://www.w3.org/2000/svg" viewBox="0 0 75 74.95"><defs><style>.cls-1{fill:#26baa2;}.cls-2{fill:#89cfc1;}.cls-3{fill:#eceded;}.cls-4{fill:#fcfdfd;}.cls-5{fill:#e1e2e2;}.cls-6{fill:#f8faf9;}</style></defs><title>Ресурс 81</title><g id="Слой_2" data-name="Слой 2"><g id="Layer_1" data-name="Layer 1"><path class="cls-1" d="M5.82,57.38A33.29,33.29,0,0,1,.08,35.81C1,20.77,8.44,9.7,22.16,3.57s27-4.33,38.84,5c14.35,11.34,18.06,31,9.3,47a4.12,4.12,0,0,1-1.44,1.88c-2.4-4.93-5.7-9.28-8.79-13.77A62.11,62.11,0,0,0,55.2,36C49.51,27.27,43.76,18.59,38,9.89c-.08-.34-.24-.68-.6-.71s-.36.31-.38.58c-.31.4-.66.77-.93,1.19Q25.56,27.11,15,43.27Z"/><path class="cls-2" d="M5.82,57.38,15,43.27c.63.77,1.5.44,2.26.44,5,0,10,0,15,0,1.65,2.57,3,5.36,5.3,7.46,2.11-2.24,3.47-5,5.29-7.45H60.07c3.09,4.49,6.39,8.84,8.79,13.77-1.8,4.07-5,7-8.42,9.61A37.67,37.67,0,0,1,6,58,2.36,2.36,0,0,1,5.82,57.38Z"/><path class="cls-3" d="M60.07,43.74H42.85C42,38.17,41.2,32.59,40.41,27s-2-11.27-2.47-17L38,9.89C43.76,18.59,49.51,27.27,55.2,36A62.11,62.11,0,0,1,60.07,43.74Z"/><path class="cls-4" d="M32.26,43.74c-5,0-10,0-15,0-.76,0-1.63.33-2.26-.44Q25.57,27.12,36.12,11c.27-.42.62-.79.93-1.19l-.36,2.82Q35.45,21,34.22,29.33C33.52,34.12,32.44,38.87,32.26,43.74Z"/><path class="cls-5" d="M36.69,12.58h.86q0,19.32,0,38.63c-2.32-2.1-3.65-4.89-5.3-7.46.18-4.87,1.26-9.62,2-14.41Q35.45,20.95,36.69,12.58Z"/><path class="cls-6" d="M37.56,51.2q0-19.32,0-38.63c.17-.84-.35-1.79.39-2.54.5,5.7,1.66,11.31,2.47,17S42,38.17,42.85,43.75C41,46.2,39.67,49,37.56,51.2Z"/></g></g></svg>